<svg width="32" height="32" viewBox="0 0 32 32" fill="none" xmlns="http://www.w3.org/2000/svg">
<path d="M13.6002 7.19678C13.6002 6.56026 13.8531 5.94981 14.3032 5.49972C14.7533 5.04963 15.3637 4.79678 16.0002 4.79678C16.6368 4.79678 17.2472 5.04963 17.6973 5.49972C18.1474 5.94981 18.4002 6.56026 18.4002 7.19678C18.4002 7.8333 18.1474 8.44375 17.6973 8.89383C17.2472 9.34392 16.6368 9.59678 16.0002 9.59678C15.3637 9.59678 14.7533 9.34392 14.3032 8.89383C13.8531 8.44375 13.6002 7.8333 13.6002 7.19678ZM16.0002 3.19678C15.3952 3.19686 14.7981 3.33418 14.2539 3.5984C13.7096 3.86261 13.2324 4.24684 12.8581 4.72216C12.4839 5.19749 12.2223 5.75152 12.0931 6.34256C11.9639 6.93359 11.9704 7.54624 12.1122 8.13438L8.75384 6.63998C8.07511 6.33834 7.30471 6.31706 6.61037 6.58077C5.91603 6.84448 5.35399 7.37183 5.04664 8.04798C4.40664 9.45918 5.03384 11.1152 6.44984 11.744L11.2002 13.8592V17.5184L8.19704 24.9504C7.92764 25.6371 7.94014 26.4024 8.23182 27.08C8.52351 27.7576 9.07081 28.2927 9.7548 28.569C10.4388 28.8454 11.2042 28.8406 11.8847 28.5558C12.5652 28.271 13.1058 27.7291 13.389 27.048L15.8786 20.8896C15.8861 20.8647 15.9019 20.8432 15.9234 20.8288C15.9461 20.8166 15.9713 20.81 15.997 20.8096C16.029 20.8096 16.0536 20.816 16.0706 20.8288C16.0922 20.8432 16.108 20.8647 16.1154 20.8896L18.6034 27.048C18.8867 27.7291 19.4273 28.271 20.1078 28.5558C20.7883 28.8406 21.5537 28.8454 22.2377 28.569C22.9217 28.2927 23.469 27.7576 23.7607 27.08C24.0523 26.4024 24.0648 25.6371 23.7954 24.9504L20.8002 17.536V13.8592L25.549 11.744C25.8849 11.5946 26.1878 11.3803 26.4404 11.1133C26.6929 10.8463 26.8901 10.5319 27.0206 10.1883C27.151 9.84468 27.2122 9.47865 27.2004 9.1113C27.1887 8.74395 27.1043 8.38256 26.9522 8.04798C26.6449 7.37183 26.0828 6.84448 25.3885 6.58077C24.6942 6.31706 23.9238 6.33834 23.245 6.63998L19.8898 8.13438C20.0316 7.54624 20.0382 6.93359 19.909 6.34256C19.7798 5.75152 19.5182 5.19749 19.1439 4.72216C18.7697 4.24684 18.2924 3.86261 17.7482 3.5984C17.2039 3.33418 16.6068 3.19686 16.0018 3.19678M6.50424 8.71038C6.63696 8.41861 6.87952 8.19105 7.17915 8.0772C7.47878 7.96334 7.81124 7.97239 8.10424 8.10238L14.373 10.8928C14.8852 11.1208 15.4396 11.2387 16.0002 11.2387C16.5609 11.2387 17.1153 11.1208 17.6274 10.8928L23.8962 8.10238C24.1892 7.97239 24.5217 7.96334 24.8213 8.0772C25.121 8.19105 25.3635 8.41861 25.4962 8.71038C25.5611 8.85272 25.5971 9.0065 25.6021 9.16284C25.6072 9.31917 25.5812 9.47495 25.5257 9.62119C25.4702 9.76744 25.3863 9.90123 25.2788 10.0149C25.1713 10.1285 25.0424 10.2197 24.8994 10.2832L20.149 12.3968C19.8664 12.5227 19.6264 12.7279 19.458 12.9874C19.2896 13.247 19.2001 13.5498 19.2002 13.8592V17.536C19.2002 17.7416 19.2399 17.9453 19.317 18.136L22.3122 25.5488C22.4204 25.8414 22.4103 26.1647 22.2842 26.45C22.158 26.7353 21.9257 26.9603 21.6364 27.0773C21.3472 27.1942 21.0238 27.1939 20.7348 27.0764C20.4458 26.959 20.2139 26.7335 20.0882 26.448L17.5986 20.2896C17.0162 18.8496 14.9762 18.8496 14.3938 20.2896L11.9058 26.4496C11.8502 26.6003 11.7648 26.7382 11.6548 26.8553C11.5448 26.9724 11.4124 27.0662 11.2655 27.1311C11.1186 27.1961 10.9601 27.2309 10.7995 27.2335C10.6389 27.236 10.4794 27.2063 10.3304 27.1461C10.1815 27.0859 10.0462 26.9964 9.93249 26.8829C9.8188 26.7694 9.72905 26.6343 9.66856 26.4855C9.60807 26.3366 9.57808 26.1772 9.58036 26.0166C9.58264 25.8559 9.61715 25.6974 9.68184 25.5504L12.6834 18.1184C12.7606 17.9277 12.8002 17.724 12.8002 17.5184V13.8592C12.8004 13.5498 12.7109 13.247 12.5425 12.9874C12.3741 12.7279 12.134 12.5227 11.8514 12.3968L7.10104 10.2832C6.95809 10.2197 6.82915 10.1285 6.72165 10.0149C6.61416 9.90123 6.53024 9.76744 6.47475 9.62119C6.41926 9.47495 6.39329 9.31917 6.39835 9.16284C6.40341 9.0065 6.4394 8.85272 6.50424 8.71038Z" fill="#4C71D2"/>
</svg>
