<svg width="12" height="12" viewBox="0 0 12 12" fill="none" xmlns="http://www.w3.org/2000/svg">
<path d="M8.2633 6.55113C8.42955 6.40566 8.4464 6.15295 8.30093 5.9867C8.15545 5.82044 7.90275 5.80359 7.7365 5.94907L6.3999 7.11859V2.0001C6.3999 1.77918 6.22081 1.6001 5.9999 1.6001C5.77898 1.6001 5.5999 1.77918 5.5999 2.0001L5.5999 7.11859L4.2633 5.94907C4.09704 5.80359 3.84434 5.82044 3.69887 5.9867C3.55339 6.15295 3.57024 6.40566 3.7365 6.55113L5.7365 8.30113C5.88731 8.43309 6.11249 8.43309 6.2633 8.30113L8.2633 6.55113Z" fill="#5E5E5E"/>
<path d="M2.4001 7.5001C2.4001 7.27918 2.22101 7.1001 2.0001 7.1001C1.77918 7.1001 1.6001 7.27918 1.6001 7.5001V9.5001C1.6001 10.2733 2.2269 10.9001 3.0001 10.9001H9.0001C9.7733 10.9001 10.4001 10.2733 10.4001 9.5001V7.5001C10.4001 7.27918 10.221 7.1001 10.0001 7.1001C9.77918 7.1001 9.6001 7.27918 9.6001 7.5001V9.5001C9.6001 9.83147 9.33147 10.1001 9.0001 10.1001H3.0001C2.66873 10.1001 2.4001 9.83147 2.4001 9.5001V7.5001Z" fill="#5E5E5E"/>
</svg>
