<svg width="32" height="32" viewBox="0 0 32 32" fill="none" xmlns="http://www.w3.org/2000/svg">
<path fill-rule="evenodd" clip-rule="evenodd" d="M7.56543 5.96534C7.72618 5.80459 7.9442 5.71429 8.17153 5.71429H18.9593L24.4572 11.2122V25.4286C24.4572 25.6559 24.3669 25.8739 24.2062 26.0347C24.0454 26.1954 23.8274 26.2857 23.6001 26.2857H8.17153C7.9442 26.2857 7.72618 26.1954 7.56543 26.0347C7.40469 25.8739 7.31438 25.6559 7.31438 25.4286V6.57143C7.31438 6.3441 7.40469 6.12608 7.56543 5.96534ZM8.17153 4C7.48954 4 6.83549 4.27092 6.35325 4.75315C5.87102 5.23539 5.6001 5.88944 5.6001 6.57143V25.4286C5.6001 26.1106 5.87102 26.7646 6.35325 27.2468C6.83549 27.7291 7.48954 28 8.17153 28H23.6001C24.2821 28 24.9361 27.7291 25.4184 27.2468C25.9006 26.7646 26.1715 26.1106 26.1715 25.4286V10.8571C26.1715 10.6298 26.0812 10.4118 25.9205 10.2511L19.9205 4.25105C19.7597 4.09031 19.5417 4 19.3144 4H8.17153ZM16.743 11.7143C16.743 11.2409 16.3592 10.8571 15.8858 10.8571C15.4124 10.8571 15.0287 11.2409 15.0287 11.7143V19.0735L13.0633 17.1082C12.7286 16.7735 12.1859 16.7735 11.8511 17.1082C11.5164 17.4429 11.5164 17.9856 11.8511 18.3204L15.2797 21.7489C15.6145 22.0837 16.1572 22.0837 16.4919 21.7489L19.9205 18.3204C20.2552 17.9856 20.2552 17.4429 19.9205 17.1082C19.5857 16.7735 19.043 16.7735 18.7083 17.1082L16.743 19.0735V11.7143Z" fill="#4C71D2"/>
</svg>
