<svg width="12" height="12" viewBox="0 0 12 12" fill="none" xmlns="http://www.w3.org/2000/svg">
<path fill-rule="evenodd" clip-rule="evenodd" d="M2.6752 8.99995C2.6752 9.31752 2.93263 9.57495 3.2502 9.57495L9.0002 9.57495C9.31776 9.57495 9.57519 9.31752 9.57519 8.99995V7.24995C9.57519 7.01523 9.76547 6.82495 10.0002 6.82495C10.2349 6.82495 10.4252 7.01523 10.4252 7.24995V8.99995C10.4252 9.78696 9.7872 10.425 9.0002 10.425H3.2502C2.46319 10.425 1.8252 9.78696 1.8252 8.99995L1.8252 2.99995C1.8252 2.21295 2.46319 1.57495 3.2502 1.57495L4.5002 1.57495C4.73492 1.57495 4.9252 1.76523 4.9252 1.99995C4.9252 2.23467 4.73492 2.42495 4.5002 2.42495L3.2502 2.42495C2.93263 2.42495 2.6752 2.68239 2.6752 2.99995L2.6752 8.99995Z" fill="#333333"/>
<path fill-rule="evenodd" clip-rule="evenodd" d="M5.69968 6.30047C5.5337 6.1345 5.5337 5.8654 5.69968 5.69943L8.97415 2.42495L7.0002 2.42495C6.76547 2.42495 6.5752 2.23467 6.5752 1.99995C6.5752 1.76523 6.76547 1.57495 7.0002 1.57495L10.0002 1.57495C10.2349 1.57495 10.4252 1.76523 10.4252 1.99995V4.99995C10.4252 5.23467 10.2349 5.42495 10.0002 5.42495C9.76547 5.42495 9.5752 5.23467 9.5752 4.99995V3.02599L6.30072 6.30047C6.13474 6.46645 5.86565 6.46645 5.69968 6.30047Z" fill="#333333"/>
</svg>
