<svg width="32" height="32" viewBox="0 0 32 32" fill="none" xmlns="http://www.w3.org/2000/svg">
<path d="M7.7998 24.2001C7.7998 21.9357 9.63544 20.1001 11.8998 20.1001H15.9998V24.2001C15.9998 26.4645 14.1642 28.3001 11.8998 28.3001V28.3001C9.63544 28.3001 7.7998 26.4645 7.7998 24.2001V24.2001Z" fill="#0ACF83"/>
<ellipse cx="20.12" cy="16.0399" rx="4.12" ry="4.12" fill="#1ABCFE"/>
<path d="M7.7998 16.0001C7.7998 18.2645 9.63544 20.1001 11.8998 20.1001H15.9998L15.9998 11.9001L11.8998 11.9001C9.63544 11.9001 7.7998 13.7357 7.7998 16.0001V16.0001Z" fill="#A259FF"/>
<path d="M16 3.69995V11.9H20.1C22.3644 11.9 24.2 10.0643 24.2 7.79995V7.79995C24.2 5.53558 22.3644 3.69995 20.1 3.69995H16Z" fill="#FF7262"/>
<path d="M7.7998 7.7999C7.7998 10.0643 9.63544 11.8999 11.8998 11.8999L15.9998 11.8999L15.9998 3.6999L11.8998 3.6999C9.63544 3.6999 7.7998 5.53554 7.7998 7.7999V7.7999Z" fill="#F24E1E"/>
</svg>
