<svg width="16" height="16" viewBox="0 0 16 16" fill="none" xmlns="http://www.w3.org/2000/svg">
<path fill-rule="evenodd" clip-rule="evenodd" d="M8.19851 3.80009H2.66676C2.3722 3.80009 2.13342 4.03887 2.13342 4.33342C2.13342 4.62797 2.3722 4.86676 2.66676 4.86676H8.19851C8.43689 5.82408 9.30232 6.53342 10.3334 6.53342C11.3645 6.53342 12.23 5.82408 12.4683 4.86676H13.3334C13.628 4.86676 13.8668 4.62797 13.8668 4.33342C13.8668 4.03887 13.628 3.80009 13.3334 3.80009H12.4683C12.23 2.84277 11.3645 2.13342 10.3334 2.13342C9.30232 2.13342 8.43689 2.84277 8.19851 3.80009ZM9.20009 4.33342C9.20009 3.7075 9.7075 3.20009 10.3334 3.20009C10.9593 3.20009 11.4668 3.7075 11.4668 4.33342C11.4668 4.95935 10.9593 5.46676 10.3334 5.46676C9.7075 5.46676 9.20009 4.95935 9.20009 4.33342Z" fill="#333333"/>
<path fill-rule="evenodd" clip-rule="evenodd" d="M3.53185 7.46676C3.77022 6.50944 4.63565 5.80009 5.66676 5.80009C6.69786 5.80009 7.56329 6.50944 7.80167 7.46676H13.3334C13.628 7.46676 13.8668 7.70554 13.8668 8.00009C13.8668 8.29464 13.628 8.53342 13.3334 8.53342H7.80167C7.56329 9.49074 6.69786 10.2001 5.66676 10.2001C4.63565 10.2001 3.77022 9.49074 3.53185 8.53342H2.66676C2.3722 8.53342 2.13342 8.29464 2.13342 8.00009C2.13342 7.70554 2.3722 7.46676 2.66676 7.46676H3.53185ZM5.66676 6.86676C5.04083 6.86676 4.53342 7.37417 4.53342 8.00009C4.53342 8.62601 5.04083 9.13342 5.66676 9.13342C6.29268 9.13342 6.80009 8.62601 6.80009 8.00009C6.80009 7.37417 6.29268 6.86676 5.66676 6.86676Z" fill="#333333"/>
<path fill-rule="evenodd" clip-rule="evenodd" d="M8.19851 11.1334C8.43689 10.1761 9.30232 9.46676 10.3334 9.46676C11.3645 9.46676 12.23 10.1761 12.4683 11.1334H13.3334C13.628 11.1334 13.8668 11.3722 13.8668 11.6668C13.8668 11.9613 13.628 12.2001 13.3334 12.2001H12.4683C12.23 13.1574 11.3645 13.8668 10.3334 13.8668C9.30232 13.8668 8.43689 13.1574 8.19851 12.2001H2.66676C2.3722 12.2001 2.13342 11.9613 2.13342 11.6668C2.13342 11.3722 2.3722 11.1334 2.66676 11.1334H8.19851ZM10.3334 10.5334C9.7075 10.5334 9.20009 11.0408 9.20009 11.6668C9.20009 12.2927 9.7075 12.8001 10.3334 12.8001C10.9593 12.8001 11.4668 12.2927 11.4668 11.6668C11.4668 11.0408 10.9593 10.5334 10.3334 10.5334Z" fill="#333333"/>
</svg>
