<svg width="12" height="8" viewBox="0 0 12 8" fill="none" xmlns="http://www.w3.org/2000/svg">
<path d="M0.799805 0.666695C0.799805 0.372143 1.03859 0.133362 1.33314 0.133362H10.6665C10.961 0.133362 11.1998 0.372143 11.1998 0.666695C11.1998 0.961247 10.961 1.20003 10.6665 1.20003L1.33314 1.20003C1.03859 1.20003 0.799805 0.961247 0.799805 0.666695Z" fill="#999999"/>
<path d="M0.799805 4.00003C0.799805 3.70548 1.03859 3.4667 1.33314 3.4667L10.6665 3.4667C10.961 3.46669 11.1998 3.70548 11.1998 4.00003C11.1998 4.29458 10.961 4.53336 10.6665 4.53336L1.33314 4.53336C1.03859 4.53336 0.799805 4.29458 0.799805 4.00003Z" fill="#999999"/>
<path d="M1.33314 6.80003C1.03859 6.80003 0.799805 7.03881 0.799805 7.33336C0.799805 7.62791 1.03859 7.8667 1.33314 7.8667H10.6665C10.961 7.8667 11.1998 7.62791 11.1998 7.33336C11.1998 7.03881 10.961 6.80003 10.6665 6.80003H1.33314Z" fill="#999999"/>
</svg>
