<svg width="17" height="16" viewBox="0 0 17 16" fill="none" xmlns="http://www.w3.org/2000/svg">
<path d="M15.1663 7.99992C15.1663 9.76803 14.464 11.4637 13.2137 12.714C11.9635 13.9642 10.2678 14.6666 8.49967 14.6666C6.73156 14.6666 5.03587 13.9642 3.78563 12.714C2.53539 11.4637 1.83301 9.76803 1.83301 7.99992C1.83301 6.23181 2.53539 4.53612 3.78563 3.28587C5.03587 2.03563 6.73156 1.33325 8.49967 1.33325C10.2678 1.33325 11.9635 2.03563 13.2137 3.28587C14.464 4.53612 15.1663 6.23181 15.1663 7.99992ZM7.83301 8.66659V10.6666C7.83301 10.8434 7.90325 11.013 8.02827 11.138C8.15329 11.263 8.32286 11.3333 8.49967 11.3333C8.67649 11.3333 8.84605 11.263 8.97108 11.138C9.0961 11.013 9.16634 10.8434 9.16634 10.6666V8.66659C9.16634 8.48977 9.0961 8.32021 8.97108 8.19518C8.84605 8.07016 8.67649 7.99992 8.49967 7.99992C8.32286 7.99992 8.15329 8.07016 8.02827 8.19518C7.90325 8.32021 7.83301 8.48977 7.83301 8.66659ZM8.49967 4.99992C8.23446 4.99992 7.9801 5.10528 7.79257 5.29281C7.60503 5.48035 7.49967 5.7347 7.49967 5.99992C7.49967 6.26514 7.60503 6.51949 7.79257 6.70703C7.9801 6.89456 8.23446 6.99992 8.49967 6.99992C8.76489 6.99992 9.01925 6.89456 9.20678 6.70703C9.39432 6.51949 9.49967 6.26514 9.49967 5.99992C9.49967 5.7347 9.39432 5.48035 9.20678 5.29281C9.01925 5.10528 8.76489 4.99992 8.49967 4.99992Z" fill="#999999"/>
</svg>
