<svg width="32" height="32" viewBox="0 0 32 32" fill="none" xmlns="http://www.w3.org/2000/svg">
<path fill-rule="evenodd" clip-rule="evenodd" d="M15.9997 26.6666C10.1223 26.6666 5.33301 21.8773 5.33301 15.9999C5.33301 10.1226 10.1223 5.33325 15.9997 5.33325C21.877 5.33325 26.6663 9.64259 26.6663 14.9333C26.6663 18.4639 23.797 21.3333 20.2663 21.3333H18.3783C18.0797 21.3333 17.845 21.5679 17.845 21.8666C17.845 21.9946 17.8983 22.1119 17.9837 22.2186C18.421 22.7199 18.6663 23.3493 18.6663 23.9999C18.6663 24.7072 18.3854 25.3854 17.8853 25.8855C17.3852 26.3856 16.7069 26.6666 15.9997 26.6666ZM15.9997 7.46659C11.2957 7.46659 7.46634 11.2959 7.46634 15.9999C7.46634 20.7039 11.2957 24.5333 15.9997 24.5333C16.2983 24.5333 16.533 24.2986 16.533 23.9999C16.5297 23.8616 16.4767 23.729 16.3837 23.6266C15.9463 23.1359 15.7117 22.5066 15.7117 21.8666C15.7117 21.1593 15.9926 20.4811 16.4927 19.981C16.9928 19.4809 17.6711 19.1999 18.3783 19.1999H20.2663C22.6237 19.1999 24.533 17.2906 24.533 14.9333C24.533 10.8159 20.7037 7.46659 15.9997 7.46659ZM9.90444 17.5237C10.746 17.5237 11.4282 16.8415 11.4282 15.9999C11.4282 15.1583 10.746 14.4761 9.90444 14.4761C9.06286 14.4761 8.38063 15.1583 8.38063 15.9999C8.38063 16.8415 9.06286 17.5237 9.90444 17.5237ZM14.4759 11.4285C14.4759 12.2701 13.7936 12.9523 12.9521 12.9523C12.1105 12.9523 11.4282 12.2701 11.4282 11.4285C11.4282 10.5869 12.1105 9.90468 12.9521 9.90468C13.7936 9.90468 14.4759 10.5869 14.4759 11.4285ZM19.0473 12.9523C19.8889 12.9523 20.5711 12.2701 20.5711 11.4285C20.5711 10.5869 19.8889 9.90468 19.0473 9.90468C18.2057 9.90468 17.5235 10.5869 17.5235 11.4285C17.5235 12.2701 18.2057 12.9523 19.0473 12.9523ZM23.6187 15.9999C23.6187 16.8415 22.9365 17.5237 22.0949 17.5237C21.2533 17.5237 20.5711 16.8415 20.5711 15.9999C20.5711 15.1583 21.2533 14.4761 22.0949 14.4761C22.9365 14.4761 23.6187 15.1583 23.6187 15.9999Z" fill="#4C71D2"/>
</svg>
