<svg width="16" height="16" viewBox="0 0 16 16" fill="none" xmlns="http://www.w3.org/2000/svg">
<path fill-rule="evenodd" clip-rule="evenodd" d="M8.19839 3.80015H2.66663C2.37208 3.80015 2.1333 4.03893 2.1333 4.33348C2.1333 4.62804 2.37208 4.86682 2.66663 4.86682H8.19839C8.43677 5.82414 9.3022 6.53348 10.3333 6.53348C11.3644 6.53348 12.2298 5.82414 12.4682 4.86682H13.3333C13.6279 4.86682 13.8666 4.62804 13.8666 4.33348C13.8666 4.03893 13.6279 3.80015 13.3333 3.80015H12.4682C12.2298 2.84283 11.3644 2.13348 10.3333 2.13348C9.3022 2.13348 8.43677 2.84283 8.19839 3.80015ZM9.19997 4.33348C9.19997 3.70756 9.70738 3.20015 10.3333 3.20015C10.9592 3.20015 11.4666 3.70756 11.4666 4.33348C11.4666 4.95941 10.9592 5.46682 10.3333 5.46682C9.70738 5.46682 9.19997 4.95941 9.19997 4.33348Z" fill="#333333"/>
<path fill-rule="evenodd" clip-rule="evenodd" d="M3.53172 7.46682C3.7701 6.5095 4.63553 5.80015 5.66663 5.80015C6.69774 5.80015 7.56317 6.5095 7.80154 7.46682H13.3333C13.6279 7.46682 13.8666 7.7056 13.8666 8.00015C13.8666 8.2947 13.6279 8.53348 13.3333 8.53348H7.80154C7.56317 9.4908 6.69774 10.2002 5.66663 10.2002C4.63553 10.2002 3.7701 9.4908 3.53172 8.53348H2.66663C2.37208 8.53348 2.1333 8.2947 2.1333 8.00015C2.1333 7.7056 2.37208 7.46682 2.66663 7.46682H3.53172ZM5.66663 6.86682C5.04071 6.86682 4.5333 7.37423 4.5333 8.00015C4.5333 8.62607 5.04071 9.13348 5.66663 9.13348C6.29256 9.13348 6.79997 8.62607 6.79997 8.00015C6.79997 7.37423 6.29256 6.86682 5.66663 6.86682Z" fill="#333333"/>
<path fill-rule="evenodd" clip-rule="evenodd" d="M8.19839 11.1335C8.43677 10.1762 9.3022 9.46682 10.3333 9.46682C11.3644 9.46682 12.2298 10.1762 12.4682 11.1335H13.3333C13.6279 11.1335 13.8666 11.3723 13.8666 11.6668C13.8666 11.9614 13.6279 12.2002 13.3333 12.2002H12.4682C12.2298 13.1575 11.3644 13.8668 10.3333 13.8668C9.3022 13.8668 8.43677 13.1575 8.19839 12.2002H2.66663C2.37208 12.2002 2.1333 11.9614 2.1333 11.6668C2.1333 11.3723 2.37208 11.1335 2.66663 11.1335H8.19839ZM10.3333 10.5335C9.70738 10.5335 9.19997 11.0409 9.19997 11.6668C9.19997 12.2927 9.70738 12.8002 10.3333 12.8002C10.9592 12.8002 11.4666 12.2927 11.4666 11.6668C11.4666 11.0409 10.9592 10.5335 10.3333 10.5335Z" fill="#333333"/>
</svg>
