<svg width="32" height="32" viewBox="0 0 32 32" fill="none" xmlns="http://www.w3.org/2000/svg">
<g clip-path="url(#clip0_6944_26386)">
<path fill-rule="evenodd" clip-rule="evenodd" d="M0.000172199 16.0002C7.70969e-05 7.1636 7.16351 0 16.0001 0V0C24.8366 0 32 7.16349 32 16V16C32 24.8365 24.8366 32 16.0001 32V32C7.16365 32 0.000267299 24.8366 0.000172199 16.0002V16.0002Z" fill="#015A9C"/>
<path d="M9.67641 11.2471L11.709 18.2356L13.7414 11.2471H19.2516V11.9418L17.1769 15.5566C17.9055 15.7933 18.4569 16.2234 18.8306 16.8468C19.2043 17.4707 19.3914 18.2027 19.3914 19.0438C19.3914 20.0837 19.118 20.958 18.5712 21.6665C18.0245 22.375 17.3165 22.7294 16.4478 22.7294C15.7936 22.7294 15.2236 22.519 14.738 22.0986C14.2521 21.6782 13.8925 21.1088 13.6587 20.3904L14.8077 19.9086C14.9763 20.3434 15.1981 20.686 15.4736 20.9363C15.7492 21.1868 16.0739 21.3116 16.4478 21.3116C16.8403 21.3116 17.172 21.0897 17.4429 20.6456C17.714 20.2012 17.8494 19.6678 17.8494 19.0433C17.8494 18.3536 17.7043 17.8194 17.4152 17.4415C17.0785 16.9976 16.5504 16.775 15.8309 16.775H15.2704V16.095L17.2328 12.6641H14.8638L14.7291 12.8961L11.8481 22.7286H11.7082L9.60543 15.613L7.50313 22.7288H7.363L4 11.2471H5.47182L7.50391 18.2356L8.87761 13.5297L8.20485 11.2471H9.67641ZM26.9535 11.2471C26.6725 11.2471 26.4201 11.3484 26.2289 11.5428C26.0261 11.7489 25.9131 12.0151 25.9131 12.2907C25.9131 12.5663 26.0206 12.8215 26.2176 13.0214C26.4178 13.2249 26.6754 13.3348 26.9538 13.3348C27.226 13.3348 27.4901 13.2247 27.6957 13.0248C27.8927 12.8335 28 12.5783 28 12.2912C28 12.0165 27.8917 11.7529 27.6986 11.5576C27.6017 11.4584 27.4858 11.3797 27.3578 11.3263C27.2297 11.273 27.0922 11.246 26.9535 11.2471ZM27.8606 12.2998C27.8615 12.417 27.8386 12.5332 27.7933 12.6413C27.748 12.7494 27.6813 12.8472 27.5971 12.9287C27.417 13.1031 27.1942 13.1957 26.9475 13.1957C26.8297 13.1949 26.7131 13.1707 26.6047 13.1244C26.4963 13.0781 26.3981 13.0107 26.316 12.9261C26.1451 12.7521 26.0493 12.5287 26.0493 12.2912C26.0493 12.0535 26.148 11.8215 26.3246 11.6417C26.4898 11.4734 26.7129 11.3838 26.9562 11.3838C27.2054 11.3838 27.4285 11.4767 27.6026 11.6534C27.7709 11.8212 27.8606 12.0475 27.8606 12.2998ZM26.9823 11.6793H26.536V12.8622H26.7591V12.3577H26.9796L27.2203 12.8622H27.4695L27.2054 12.323C27.3763 12.2881 27.4749 12.1722 27.4749 12.0039C27.4749 11.7894 27.3129 11.6793 26.9823 11.6793ZM26.9418 11.8241C27.1506 11.8241 27.2458 11.882 27.2458 12.0271C27.2458 12.1662 27.1506 12.2155 26.9473 12.2155H26.7589V11.8241H26.9418ZM25.4272 11.2471L25.6521 12.7904L24.8562 14.5096C24.8562 14.5096 24.5504 13.7802 24.0425 13.3765C23.6146 13.0365 23.3359 12.9627 22.9001 13.0639C22.3403 13.1944 21.7056 13.9496 21.4288 14.881C21.0973 15.9953 21.0939 16.5344 21.0822 17.0297C21.0637 17.8236 21.1746 18.293 21.1746 18.293C21.1746 18.293 20.691 17.2836 20.6957 15.8053C20.6989 14.7502 20.846 13.7933 21.2784 12.8491C21.6592 12.019 22.2247 11.5208 22.7268 11.4621C23.2461 11.4016 23.6563 11.6839 23.9734 11.9893C24.3064 12.3103 24.6427 13.0117 24.6427 13.0117L25.4272 11.2471ZM25.4515 19.5519C25.4515 19.5519 25.1023 20.2218 24.8849 20.4799C24.6673 20.7382 24.2779 21.1928 23.7975 21.4201C23.3168 21.6477 23.0647 21.6905 22.5898 21.6417C22.1148 21.5926 21.6738 21.2975 21.5193 21.1746C21.3648 21.0514 20.9697 20.6889 20.7463 20.351C20.5232 20.0128 20.1743 19.3369 20.1743 19.3369C20.1743 19.3369 20.3687 20.0143 20.4906 20.3019C20.5608 20.4676 20.7761 20.9736 21.0817 21.4141C21.3666 21.8254 21.9204 22.5329 22.7617 22.6926C23.6031 22.8525 24.1814 22.4467 24.3241 22.3484C24.4674 22.2502 24.7688 21.9788 24.9598 21.7596C25.1589 21.5308 25.3476 21.239 25.452 21.0639C25.5282 20.936 25.6524 20.6764 25.6524 20.6764L25.4515 19.5519Z" fill="white"/>
</g>
<defs>
<clipPath id="clip0_6944_26386">
<rect width="32" height="32" fill="white"/>
</clipPath>
</defs>
</svg>
