<svg width="24" height="24" viewBox="0 0 24 24" fill="none" xmlns="http://www.w3.org/2000/svg">
<path fill-rule="evenodd" clip-rule="evenodd" d="M3 12C3 7.02944 7.02944 3 12 3C16.9706 3 21 7.02944 21 12C21 16.9706 16.9706 21 12 21C7.02944 21 3 16.9706 3 12ZM15.3093 15.3093C15.5636 15.055 15.5636 14.6427 15.3093 14.3884L12.9209 12L15.3093 9.6116C15.5636 9.35731 15.5636 8.94502 15.3093 8.69072C15.055 8.43643 14.6427 8.43643 14.3884 8.69072L12 11.0791L9.6116 8.69072C9.35731 8.43643 8.94502 8.43643 8.69072 8.69072C8.43643 8.94502 8.43643 9.35731 8.69072 9.6116L11.0791 12L8.69072 14.3884C8.43643 14.6427 8.43643 15.055 8.69072 15.3093C8.94502 15.5636 9.35731 15.5636 9.61161 15.3093L12 12.9209L14.3884 15.3093C14.6427 15.5636 15.055 15.5636 15.3093 15.3093Z" fill="#CFCFCF"/>
</svg>
